<svg width="22" height="19" viewBox="0 0 22 19" fill="none" xmlns="http://www.w3.org/2000/svg">
<mask id="mask0_4_149" style="mask-type:luminance" maskUnits="userSpaceOnUse" x="0" y="0" width="22" height="19">
<rect x="0.184219" y="0.5" width="21.4579" height="18" fill="white"/>
</mask>
<g mask="url(#mask0_4_149)">
<path fill-rule="evenodd" clip-rule="evenodd" d="M10.9132 2.375C6.22219 2.375 2.41942 5.95671 2.4194 10.375C2.41939 14.7933 6.22215 18.375 10.9131 18.375C15.6041 18.375 19.4069 14.7933 19.4069 10.375C19.4069 5.95677 15.6042 2.37503 10.9132 2.375H10.9132Z" fill="#039BE5"/>
<path fill-rule="evenodd" clip-rule="evenodd" d="M12.063 11.3885H14.261L14.6062 9.51535H12.0625V8.4916C12.0625 7.71348 12.3656 7.02348 13.2333 7.02348H14.6276V5.38885C14.3826 5.3611 13.8645 5.30035 12.8855 5.30035C10.8412 5.30035 9.64269 6.20598 9.64269 8.26923V9.51535H7.54115V11.3885H9.64269V16.5369C10.0589 16.5894 10.4804 16.625 10.9132 16.625C11.3043 16.625 11.6861 16.595 12.063 16.5522V11.3885Z" fill="white"/>
</g>
</svg>
