<svg width="22" height="22" viewBox="0 0 22 22" fill="none" xmlns="http://www.w3.org/2000/svg">
<g id="icons8-google">
<mask id="mask0_4_141" style="mask-type:luminance" maskUnits="userSpaceOnUse" x="0" y="0" width="22" height="22">
<rect id="Background" x="0.184219" y="0.5" width="21.4579" height="21" fill="white"/>
</mask>
<g mask="url(#mask0_4_141)">
<path id="Shape" fill-rule="evenodd" clip-rule="evenodd" d="M19.6801 9.28631H18.9599V9.25H10.9132V12.75H15.9661C15.2289 14.7874 13.2481 16.25 10.9132 16.25C7.95064 16.25 5.5487 13.8993 5.5487 11C5.5487 8.10069 7.95064 5.75 10.9132 5.75C12.2807 5.75 13.5248 6.25487 14.4721 7.07956L17.001 4.60462C15.4041 3.14819 13.2682 2.25 10.9132 2.25C5.97562 2.25 1.97238 6.16781 1.97238 11C1.97238 15.8322 5.97562 19.75 10.9132 19.75C15.8507 19.75 19.854 15.8322 19.854 11C19.854 10.4133 19.7923 9.84062 19.6801 9.28631Z" fill="#FFC107"/>
<path id="Shape_2" fill-rule="evenodd" clip-rule="evenodd" d="M3.00325 6.92731L5.94075 9.03563C6.73558 7.10975 8.66054 5.75 10.9132 5.75C12.2807 5.75 13.5248 6.25488 14.472 7.07956L17.001 4.60462C15.4041 3.14819 13.2682 2.25 10.9132 2.25C7.47901 2.25 4.50083 4.14744 3.00325 6.92731Z" fill="#FF3D00"/>
<path id="Shape_3" fill-rule="evenodd" clip-rule="evenodd" d="M10.9132 19.75C13.2226 19.75 15.321 18.8851 16.9075 17.4785L14.1403 15.1869C13.2427 15.8523 12.1269 16.25 10.9132 16.25C8.58765 16.25 6.61308 14.7988 5.8692 12.7736L2.95361 14.9721C4.43331 17.8057 7.43831 19.75 10.9132 19.75Z" fill="#4CAF50"/>
<path id="Shape_4" fill-rule="evenodd" clip-rule="evenodd" d="M19.6801 9.28631H18.9599V9.25H10.9132V12.75H15.966C15.612 13.7287 14.9687 14.5726 14.139 15.1873C14.1394 15.1869 14.1399 15.1869 14.1403 15.1864L16.9075 17.4781C16.7117 17.6522 19.854 15.375 19.854 11C19.854 10.4133 19.7923 9.84063 19.6801 9.28631Z" fill="#1976D2"/>
</g>
</g>
</svg>
