<svg width="70" height="46" viewBox="0 0 70 46" fill="none" xmlns="http://www.w3.org/2000/svg">
<path d="M34.3352 45.9805C33.3812 45.9805 32.6297 45.2 32.6297 44.275V1.75391C32.6297 0.8 33.4102 0.0195312 34.3641 0.0195312C35.318 0.0195312 36.0984 0.8 36.0984 1.75391V44.2461C36.0695 45.2 35.318 45.9805 34.3352 45.9805ZM23.7555 40.6328C22.8016 40.6328 22.05 39.8523 22.05 38.9273V7.07266C22.05 6.11875 22.8305 5.33828 23.7844 5.33828C24.7383 5.33828 25.5187 6.11875 25.5187 7.07266V38.8984C25.4898 39.8523 24.7094 40.6328 23.7555 40.6328ZM13.1758 35.2852C12.2219 35.2852 11.4703 34.5047 11.4703 33.5797V12.4203C11.4703 11.4664 12.2508 10.6859 13.2047 10.6859C14.1586 10.6859 14.9391 11.4664 14.9391 12.4203V33.5508C14.8812 34.5047 14.1297 35.2852 13.1758 35.2852ZM2.59609 28.6367C1.64219 28.6367 0.890625 27.8563 0.890625 26.9313V19.0977C0.890625 18.1437 1.67109 17.3633 2.625 17.3633C3.57891 17.3633 4.35938 18.1437 4.35938 19.0977V26.9023C4.35938 27.8563 3.57891 28.6367 2.59609 28.6367C2.625 28.6367 2.625 28.6367 2.59609 28.6367ZM46.2445 40.6328C45.3195 40.6039 44.5391 39.8523 44.5391 38.9273V7.07266C44.5391 6.11875 45.3195 5.33828 46.2734 5.33828C47.2273 5.33828 48.0078 6.11875 48.0078 7.07266V38.8984C48.0078 39.8523 47.2273 40.6039 46.3023 40.6039C46.2734 40.6328 46.2445 40.6328 46.2445 40.6328ZM56.8242 35.2852C55.8703 35.2852 55.1188 34.5047 55.1188 33.5797V12.4203C55.1188 11.4664 55.8992 10.6859 56.8531 10.6859C57.807 10.6859 58.5875 11.4664 58.5875 12.4203V33.5508C58.5297 34.5047 57.7781 35.2852 56.8242 35.2852ZM67.375 28.6367C66.4211 28.6367 65.6695 27.8563 65.6695 26.9313V19.0977C65.6695 18.1437 66.45 17.3633 67.4039 17.3633C68.3578 17.3633 69.1383 18.1437 69.1383 19.0977V26.9023C69.1094 27.8563 68.3578 28.6367 67.375 28.6367Z" fill="#FF7517"/>
</svg>
