<svg width="229" height="74" viewBox="0 0 229 74" fill="none" xmlns="http://www.w3.org/2000/svg">
<g clip-path="url(#clip0_14_10)">
<path d="M36.3352 59.9805C35.3812 59.9805 34.6297 59.2 34.6297 58.275V15.7539C34.6297 14.8 35.4102 14.0195 36.3641 14.0195C37.318 14.0195 38.0984 14.8 38.0984 15.7539V58.2461C38.0695 59.2 37.318 59.9805 36.3352 59.9805ZM25.7555 54.6328C24.8016 54.6328 24.05 53.8523 24.05 52.9273V21.0727C24.05 20.1188 24.8305 19.3383 25.7844 19.3383C26.7383 19.3383 27.5187 20.1188 27.5187 21.0727V52.8984C27.4898 53.8523 26.7094 54.6328 25.7555 54.6328ZM15.1758 49.2852C14.2219 49.2852 13.4703 48.5047 13.4703 47.5797V26.4203C13.4703 25.4664 14.2508 24.6859 15.2047 24.6859C16.1586 24.6859 16.9391 25.4664 16.9391 26.4203V47.5508C16.8812 48.5047 16.1297 49.2852 15.1758 49.2852ZM4.59609 42.6367C3.64219 42.6367 2.89062 41.8563 2.89062 40.9313V33.0977C2.89062 32.1437 3.67109 31.3633 4.625 31.3633C5.57891 31.3633 6.35938 32.1437 6.35938 33.0977V40.9023C6.35938 41.8563 5.57891 42.6367 4.59609 42.6367C4.625 42.6367 4.625 42.6367 4.59609 42.6367ZM48.2445 54.6328C47.3195 54.6039 46.5391 53.8523 46.5391 52.9273V21.0727C46.5391 20.1188 47.3195 19.3383 48.2734 19.3383C49.2273 19.3383 50.0078 20.1188 50.0078 21.0727V52.8984C50.0078 53.8523 49.2273 54.6039 48.3023 54.6039C48.2734 54.6328 48.2445 54.6328 48.2445 54.6328ZM58.8242 49.2852C57.8703 49.2852 57.1188 48.5047 57.1188 47.5797V26.4203C57.1188 25.4664 57.8992 24.6859 58.8531 24.6859C59.807 24.6859 60.5875 25.4664 60.5875 26.4203V47.5508C60.5297 48.5047 59.7781 49.2852 58.8242 49.2852ZM69.375 42.6367C68.4211 42.6367 67.6695 41.8563 67.6695 40.9313V33.0977C67.6695 32.1437 68.45 31.3633 69.4039 31.3633C70.3578 31.3633 71.1383 32.1437 71.1383 33.0977V40.9023C71.1094 41.8563 70.3578 42.6367 69.375 42.6367Z" fill="#FF7517"/>
<path d="M93.418 51V23H97.578V51H93.418ZM120.974 38.46V51H116.814V39.48C116.814 38.5867 116.594 37.7733 116.154 37.04C115.728 36.3067 115.148 35.7267 114.414 35.3C113.694 34.86 112.881 34.64 111.974 34.64C111.094 34.64 110.288 34.86 109.554 35.3C108.821 35.7267 108.234 36.3067 107.794 37.04C107.354 37.7733 107.134 38.5867 107.134 39.48V51H102.974V31H107.134V33.12C107.828 32.2933 108.681 31.64 109.694 31.16C110.708 30.68 111.801 30.44 112.974 30.44C114.454 30.44 115.801 30.8 117.014 31.52C118.228 32.24 119.188 33.2067 119.894 34.42C120.614 35.6333 120.974 36.98 120.974 38.46ZM142.223 51H137.423L132.503 42.52L129.283 46.36V51H125.123V21H129.283V39.9L136.723 31H142.163L135.343 39.14L142.223 51ZM151.162 51.38C150.108 51.3133 149.082 51.1 148.082 50.74C147.082 50.38 146.202 49.8933 145.442 49.28C144.695 48.6533 144.135 47.92 143.762 47.08L147.302 45.56C147.475 45.92 147.775 46.2733 148.202 46.62C148.642 46.9667 149.155 47.2533 149.742 47.48C150.328 47.6933 150.942 47.8 151.582 47.8C152.208 47.8 152.788 47.7133 153.322 47.54C153.868 47.3533 154.315 47.0733 154.662 46.7C155.008 46.3267 155.182 45.88 155.182 45.36C155.182 44.7733 154.982 44.32 154.582 44C154.195 43.6667 153.708 43.4133 153.122 43.24C152.535 43.0667 151.948 42.9 151.362 42.74C150.055 42.4467 148.855 42.0467 147.762 41.54C146.682 41.02 145.822 40.36 145.182 39.56C144.542 38.7467 144.222 37.7533 144.222 36.58C144.222 35.3 144.568 34.1933 145.262 33.26C145.955 32.3133 146.862 31.5867 147.982 31.08C149.115 30.5733 150.322 30.32 151.602 30.32C153.202 30.32 154.668 30.66 156.002 31.34C157.335 32.02 158.355 32.9533 159.062 34.14L155.762 36.1C155.562 35.7 155.262 35.34 154.862 35.02C154.462 34.7 154.008 34.4467 153.502 34.26C152.995 34.06 152.468 33.9467 151.922 33.92C151.242 33.8933 150.608 33.9733 150.022 34.16C149.448 34.3333 148.988 34.6133 148.642 35C148.295 35.3867 148.122 35.88 148.122 36.48C148.122 37.0667 148.328 37.5067 148.742 37.8C149.155 38.08 149.675 38.3067 150.302 38.48C150.942 38.6533 151.595 38.8467 152.262 39.06C153.448 39.4333 154.562 39.8933 155.602 40.44C156.642 40.9733 157.482 41.6333 158.122 42.42C158.762 43.2067 159.068 44.1667 159.042 45.3C159.042 46.5533 158.662 47.6533 157.902 48.6C157.155 49.5467 156.182 50.2667 154.982 50.76C153.782 51.2533 152.508 51.46 151.162 51.38ZM166.626 61H162.466V31H166.626V33.94C167.293 32.9133 168.146 32.08 169.186 31.44C170.226 30.8 171.453 30.48 172.866 30.48C174.32 30.48 175.68 30.7533 176.946 31.3C178.226 31.8467 179.346 32.6067 180.306 33.58C181.266 34.54 182.02 35.6533 182.566 36.92C183.113 38.1867 183.386 39.5467 183.386 41C183.386 42.4533 183.113 43.82 182.566 45.1C182.02 46.38 181.266 47.5067 180.306 48.48C179.346 49.44 178.226 50.1933 176.946 50.74C175.68 51.2867 174.32 51.56 172.866 51.56C171.453 51.56 170.226 51.24 169.186 50.6C168.146 49.9467 167.293 49.1133 166.626 48.1V61ZM172.826 34.5C171.666 34.5 170.646 34.7933 169.766 35.38C168.886 35.9667 168.2 36.7533 167.706 37.74C167.213 38.7133 166.966 39.8 166.966 41C166.966 42.2 167.213 43.2933 167.706 44.28C168.2 45.2667 168.886 46.0533 169.766 46.64C170.646 47.2267 171.666 47.52 172.826 47.52C173.973 47.52 175.026 47.2333 175.986 46.66C176.946 46.0733 177.713 45.2867 178.286 44.3C178.86 43.3133 179.146 42.2133 179.146 41C179.146 39.8133 178.86 38.7267 178.286 37.74C177.726 36.7533 176.966 35.9667 176.006 35.38C175.046 34.7933 173.986 34.5 172.826 34.5ZM186.255 31H190.415V51H186.255V31ZM188.375 28.1C187.735 28.1 187.202 27.8933 186.775 27.48C186.349 27.0667 186.135 26.5467 186.135 25.92C186.135 25.3067 186.349 24.7933 186.775 24.38C187.202 23.9533 187.729 23.74 188.355 23.74C188.969 23.74 189.489 23.9533 189.915 24.38C190.342 24.7933 190.555 25.3067 190.555 25.92C190.555 26.5467 190.342 27.0667 189.915 27.48C189.502 27.8933 188.989 28.1 188.375 28.1ZM195.045 51V31H199.205V33.12C199.898 32.2933 200.751 31.64 201.765 31.16C202.778 30.68 203.871 30.44 205.045 30.44C205.791 30.44 206.531 30.54 207.265 30.74L205.605 34.94C205.085 34.74 204.565 34.64 204.045 34.64C203.165 34.64 202.358 34.86 201.625 35.3C200.891 35.7267 200.305 36.3067 199.865 37.04C199.425 37.7733 199.205 38.5867 199.205 39.48V51H195.045ZM217.438 51.52C215.598 51.52 213.918 51.0467 212.398 50.1C210.892 49.1533 209.685 47.8867 208.778 46.3C207.885 44.7 207.438 42.9333 207.438 41C207.438 39.5333 207.698 38.1667 208.218 36.9C208.738 35.62 209.452 34.5 210.358 33.54C211.278 32.5667 212.345 31.8067 213.558 31.26C214.772 30.7133 216.065 30.44 217.438 30.44C218.972 30.44 220.378 30.76 221.658 31.4C222.938 32.0267 224.032 32.9 224.938 34.02C225.845 35.1267 226.512 36.4067 226.938 37.86C227.365 39.3 227.492 40.8333 227.318 42.46H211.898C212.072 43.38 212.405 44.2133 212.898 44.96C213.405 45.6933 214.045 46.2733 214.818 46.7C215.605 47.1267 216.478 47.3467 217.438 47.36C218.452 47.36 219.372 47.1067 220.198 46.6C221.038 46.0933 221.725 45.3933 222.258 44.5L226.478 45.48C225.678 47.2533 224.472 48.7067 222.858 49.84C221.245 50.96 219.438 51.52 217.438 51.52ZM211.758 39.28H223.118C222.985 38.32 222.645 37.4533 222.098 36.68C221.565 35.8933 220.892 35.2733 220.078 34.82C219.278 34.3533 218.398 34.12 217.438 34.12C216.492 34.12 215.612 34.3467 214.798 34.8C213.998 35.2533 213.332 35.8733 212.798 36.66C212.278 37.4333 211.932 38.3067 211.758 39.28Z" fill="white"/>
</g>
<defs>
<clipPath id="clip0_14_10">
<rect width="229" height="74" fill="white"/>
</clipPath>
</defs>
</svg>
